# xmcd CD database file
#
# Track frame offsets:
#	150
#	15063
#	26973
#	44553
#
# Disc length: 855 seconds
#
# Revision: 1
# Processed by: cddbd v1.5.1PL2 Copyright (c) Steve Scherf et al.
# Submitted via: CDex 1.51
#
DISCID=27035504
DTITLE=Dorzt - Dorzt
DYEAR=2006
DGENRE=Holland Rock
TTITLE0=Gevoel In Je Donder
TTITLE1=Zonder Slag Zonder Stoot
TTITLE2=Van Jou En Niet Van Mij
TTITLE3=Winter
EXTD=YEAR: 2006
EXTT0=
EXTT1=
EXTT2=
EXTT3=
PLAYORDER=
